<svg width="9" height="6" viewBox="0 0 9 6" fill="none" xmlns="http://www.w3.org/2000/svg">
<path d="M7.58128 0.967088C7.62086 0.930081 7.66734 0.901232 7.71807 0.882189C7.7688 0.863146 7.82279 0.854281 7.87694 0.856101C7.9311 0.857921 7.98437 0.87039 8.0337 0.892796C8.08304 0.915201 8.12748 0.947106 8.16449 0.986686C8.20149 1.02627 8.23034 1.07275 8.24939 1.12348C8.26843 1.17421 8.27729 1.22819 8.27547 1.28235C8.27365 1.3365 8.26118 1.38977 8.23878 1.43911C8.21637 1.48844 8.18447 1.53289 8.14489 1.56989L4.41364 5.05653C4.33667 5.12854 4.23505 5.16834 4.12965 5.16778C4.02425 5.16722 3.92306 5.12634 3.84685 5.05352L0.152446 1.52744C0.112397 1.49025 0.080136 1.44548 0.0575356 1.39572C0.0349362 1.34597 0.022449 1.29221 0.0207984 1.23759C0.0191488 1.18296 0.0283691 1.12856 0.0479237 1.07752C0.0674783 1.02649 0.0969776 0.979856 0.134709 0.940322C0.172439 0.900788 0.21765 0.869145 0.267713 0.847231C0.317777 0.825317 0.371696 0.813569 0.426339 0.812669C0.480981 0.811769 0.535257 0.821736 0.586015 0.84199C0.636773 0.862244 0.683 0.892381 0.722012 0.930652L4.13485 4.18792L7.58128 0.967088Z" fill="#29313D" fill-opacity="0.5"/>
</svg>
