<svg width="51" height="44" viewBox="0 0 51 44" fill="none" xmlns="http://www.w3.org/2000/svg">
<path d="M49.3 40.6156H45.9V16.9244C45.9 16.0268 45.5418 15.166 44.9042 14.5313C44.2665 13.8966 43.4017 13.54 42.5 13.54H28.9V3.38665C28.9004 2.77377 28.7336 2.17229 28.4174 1.64641C28.1012 1.12052 27.6475 0.689965 27.1048 0.400698C26.562 0.11143 25.9504 -0.0256923 25.3355 0.00396587C24.7205 0.033624 24.1252 0.22895 23.613 0.569095L6.613 11.8478C6.14665 12.1575 5.76447 12.5772 5.50049 13.0695C5.23652 13.5618 5.09894 14.1115 5.1 14.6695V40.6156H1.7C1.24913 40.6156 0.81673 40.7938 0.497918 41.1112C0.179107 41.4285 0 41.859 0 42.3078C0 42.7566 0.179107 43.187 0.497918 43.5044C0.81673 43.8217 1.24913 44 1.7 44H49.3C49.7509 44 50.1833 43.8217 50.5021 43.5044C50.8209 43.187 51 42.7566 51 42.3078C51 41.859 50.8209 41.4285 50.5021 41.1112C50.1833 40.7938 49.7509 40.6156 49.3 40.6156ZM42.5 16.9244V40.6156H28.9V16.9244H42.5ZM8.5 14.6695L25.5 3.38665V40.6156H8.5V14.6695ZM22.1 20.3089V23.6933C22.1 24.1421 21.9209 24.5726 21.6021 24.8899C21.2833 25.2073 20.8509 25.3855 20.4 25.3855C19.9491 25.3855 19.5167 25.2073 19.1979 24.8899C18.8791 24.5726 18.7 24.1421 18.7 23.6933V20.3089C18.7 19.8601 18.8791 19.4296 19.1979 19.1123C19.5167 18.7949 19.9491 18.6167 20.4 18.6167C20.8509 18.6167 21.2833 18.7949 21.6021 19.1123C21.9209 19.4296 22.1 19.8601 22.1 20.3089ZM15.3 20.3089V23.6933C15.3 24.1421 15.1209 24.5726 14.8021 24.8899C14.4833 25.2073 14.0509 25.3855 13.6 25.3855C13.1491 25.3855 12.7167 25.2073 12.3979 24.8899C12.0791 24.5726 11.9 24.1421 11.9 23.6933V20.3089C11.9 19.8601 12.0791 19.4296 12.3979 19.1123C12.7167 18.7949 13.1491 18.6167 13.6 18.6167C14.0509 18.6167 14.4833 18.7949 14.8021 19.1123C15.1209 19.4296 15.3 19.8601 15.3 20.3089ZM15.3 32.1544V35.5389C15.3 35.9877 15.1209 36.4181 14.8021 36.7355C14.4833 37.0528 14.0509 37.2311 13.6 37.2311C13.1491 37.2311 12.7167 37.0528 12.3979 36.7355C12.0791 36.4181 11.9 35.9877 11.9 35.5389V32.1544C11.9 31.7056 12.0791 31.2752 12.3979 30.9579C12.7167 30.6405 13.1491 30.4622 13.6 30.4622C14.0509 30.4622 14.4833 30.6405 14.8021 30.9579C15.1209 31.2752 15.3 31.7056 15.3 32.1544ZM22.1 32.1544V35.5389C22.1 35.9877 21.9209 36.4181 21.6021 36.7355C21.2833 37.0528 20.8509 37.2311 20.4 37.2311C19.9491 37.2311 19.5167 37.0528 19.1979 36.7355C18.8791 36.4181 18.7 35.9877 18.7 35.5389V32.1544C18.7 31.7056 18.8791 31.2752 19.1979 30.9579C19.5167 30.6405 19.9491 30.4622 20.4 30.4622C20.8509 30.4622 21.2833 30.6405 21.6021 30.9579C21.9209 31.2752 22.1 31.7056 22.1 32.1544Z" fill="white"/>
</svg>
